<?xml version="1.0" encoding="utf-8"?>
<!-- Generator: Adobe Illustrator 25.2.1, SVG Export Plug-In . SVG Version: 6.00 Build 0)  -->
<svg version="1.1" id="Layer_1" xmlns="http://www.w3.org/2000/svg" xmlns:xlink="http://www.w3.org/1999/xlink" x="0px" y="0px"
	 viewBox="0 0 348.91 334.1" style="enable-background:new 0 0 348.91 334.1;" xml:space="preserve">
<style type="text/css">
	.st0{fill:#FFFFFF;}
</style>
<g>
	<g>
		<path class="st0" d="M155.75,48.44h-15.36V22.62c0-9.84,8.01-17.85,17.85-17.85h34.43c9.84,0,17.85,8.01,17.85,17.85v24.26h-15.36
			V22.62c0-1.38-1.12-2.49-2.49-2.49h-34.43c-1.37,0-2.49,1.12-2.49,2.49V48.44z"/>
	</g>
	<path class="st0" d="M154.59,42.18h43.56h4.17h33.83c8.25,0,15.37,6.36,15.71,14.6c0.02,0.42,0.02,0.86,0.01,1.31
		c-0.26,12.52-14.87,22.43-20.6,22.69H117.98c-5.74-0.26-20.34-10.17-20.6-22.69c-0.01-0.45,0-0.88,0.01-1.31
		c0.34-8.25,7.46-14.6,15.71-14.6h31.05H154.59z"/>
	<path class="st0" d="M97.37,84.69c0,0,8.97,8.35,17.84,8.35s21.65,0,21.65,0v5.87c0,5.69,4.61,10.3,10.3,10.3h0
		c5.69,0,10.3-4.61,10.3-10.3v-5.35h33.64v3.39c0,5.76,4.67,10.43,10.43,10.43h0c5.76,0,10.43-4.67,10.43-10.43v-3.13h22.69
		c0,0,13.57,0.52,17.22-7.56v71.98c0,0-0.27,10.17-10.96,10.17s-130.93,0-130.93,0s-12.62,0-12.62-9.65S97.37,84.69,97.37,84.69z"/>
	<path class="st0" d="M292.56,223.18H56.27v-27.59c0-2.91,2.36-5.27,5.27-5.27h225.75c2.91,0,5.27,2.36,5.27,5.27V223.18z"/>
	<path class="st0" d="M319.42,274.82H29.92V247.8c0-3.22,2.61-5.84,5.84-5.84h277.83c3.22,0,5.84,2.61,5.84,5.84V274.82z"/>
	<path class="st0" d="M343.94,329.33h-338c-1.73,0-3.13-1.4-3.13-3.13v-23.36c0-3.52,2.85-6.37,6.37-6.37h331.54
		c3.52,0,6.37,2.85,6.37,6.37v23.36C347.07,327.93,345.67,329.33,343.94,329.33z"/>
</g>
</svg>
