<?xml version="1.0" encoding="utf-8"?>
<!-- Generator: Adobe Illustrator 24.0.2, SVG Export Plug-In . SVG Version: 6.00 Build 0)  -->
<svg version="1.1" id="Facebook" xmlns="http://www.w3.org/2000/svg" xmlns:xlink="http://www.w3.org/1999/xlink" x="0px" y="0px"
	 viewBox="0 0 48.1 48.1" style="enable-background:new 0 0 48.1 48.1;" xml:space="preserve">
<style type="text/css">
	.st0{fill:#FFFFFF;}
	.st1{fill:#3B5998;}
</style>
<rect x="7.6" y="8.1" class="st0" width="32" height="29.9"/>
<g>
	<path class="st1" d="M24,0C10.7,0,0,10.7,0,24s10.7,24,24,24s24-10.7,24-24S37.3,0,24,0z M36,34.7c0,0.7-0.6,1.3-1.3,1.3h-6.1v-9.3
		h3.1l0.5-3.6h-3.6v-2.3c0-1,0.3-1.8,1.8-1.8h1.9v-3.2c-0.3,0-1.5-0.1-2.8-0.1c-2.8,0-4.7,1.7-4.7,4.8v2.7h-3.1v3.6h3.1V36H13.3
		c-0.7,0-1.3-0.6-1.3-1.3V13.3c0-0.7,0.6-1.3,1.3-1.3h21.4c0.7,0,1.3,0.6,1.3,1.3V34.7z"/>
</g>
</svg>
