<?xml version="1.0" encoding="utf-8"?>
<!-- Generator: Adobe Illustrator 25.2.1, SVG Export Plug-In . SVG Version: 6.00 Build 0)  -->
<svg version="1.1" id="Layer_1" xmlns="http://www.w3.org/2000/svg" xmlns:xlink="http://www.w3.org/1999/xlink" x="0px" y="0px"
	 viewBox="0 0 348.91 353.93" style="enable-background:new 0 0 348.91 353.93;" xml:space="preserve">
<style type="text/css">
	.st0{fill:#FFFFFF;}
</style>
<g id="Hats-Graduation-Global-Online_learning-World">
	<path class="st0" d="M108.24,239.01H53.17c1.51,29.51,14.22,57.33,35.55,77.79c8.58-6.92,18.01-12.72,28.06-17.25
		C111.4,279.8,108.53,259.47,108.24,239.01z"/>
	<path class="st0" d="M65.14,179.27c0.01,0.94-0.2,1.86-0.61,2.7c-6.82,13.99-10.72,29.21-11.48,44.76h55.19
		c0.26-23.88,4.15-47.59,11.54-70.3c-35.61,5.22-54.64,15.23-54.64,21.18V179.27z"/>
	<path class="st0" d="M98.17,324.96c12.18,9.46,26.12,16.39,41.01,20.38c-8.19-10.16-14.51-21.7-18.66-34.07
		C112.58,314.98,105.08,319.57,98.17,324.96z"/>
	<path class="st0" d="M128.19,295.06c26.77-9.25,55.87-9.25,82.64,0c4.84-18.3,7.41-37.13,7.67-56.05h-97.99
		C120.78,257.94,123.36,276.76,128.19,295.06z"/>
	<path class="st0" d="M273.88,122.36c0-8.35-36.84-24.56-104.37-24.56S65.14,114.01,65.14,122.36v37.94
		c20.2-12.83,62.38-19.52,104.37-19.52s84.17,6.69,104.37,19.52V122.36z"/>
	<path class="st0" d="M205.49,154.77c-11.96-1.18-23.96-1.76-35.98-1.72c-12.01-0.04-24.02,0.54-35.98,1.72
		c-8.41,23.07-12.81,47.4-13.02,71.96h97.99C218.3,202.18,213.9,177.84,205.49,154.77z"/>
	<path class="st0" d="M169.51,300.4c-12.81,0.04-25.53,2.2-37.64,6.39c9.58,26.89,23.88,42.73,37.64,42.73s28.06-15.84,37.64-42.73
		C195.04,302.6,182.32,300.44,169.51,300.4z"/>
	<path class="st0" d="M222.25,299.54c10.05,4.53,19.48,10.33,28.06,17.25c21.32-20.46,34.04-48.28,35.55-77.79h-55.07
		C230.49,259.47,227.63,279.8,222.25,299.54z"/>
	<path class="st0" d="M199.84,345.35c14.89-4,28.83-10.93,41.01-20.38c-6.91-5.39-14.41-9.99-22.35-13.69
		C214.35,323.65,208.03,335.18,199.84,345.35z"/>
	<path class="st0" d="M273.88,179.27v-1.66c0-5.96-19.03-15.96-54.64-21.18c7.39,22.71,11.28,46.42,11.54,70.3h55.19
		c-0.76-15.54-4.66-30.77-11.48-44.76C274.08,181.13,273.87,180.21,273.88,179.27z"/>
	<path class="st0" d="M344.81,227.38l-9.53-19.07v-89.98l1.9-1.56L169.51,6.93L1.84,116.77l51.02,41.75v-36.16
		c0-24.19,58.69-36.84,116.65-36.84s116.65,12.65,116.65,36.84v36.16L323,128.37v79.94l-9.53,19.07c-3.03,6.07-0.57,13.44,5.5,16.47
		c1.7,0.85,3.58,1.29,5.49,1.3h9.38c6.78,0,12.28-5.5,12.28-12.28C346.11,230.96,345.67,229.08,344.81,227.38z"/>
</g>
</svg>
