<?xml version="1.0" encoding="utf-8"?>
<!-- Generator: Adobe Illustrator 25.2.1, SVG Export Plug-In . SVG Version: 6.00 Build 0)  -->
<svg version="1.1" id="Layer_1" xmlns="http://www.w3.org/2000/svg" xmlns:xlink="http://www.w3.org/1999/xlink" x="0px" y="0px"
	 viewBox="0 0 348.91 360.58" style="enable-background:new 0 0 348.91 360.58;" xml:space="preserve">
<style type="text/css">
	.st0{fill:#FFFFFF;}
</style>
<path class="st0" d="M347.46,342.19l-31.28-71.67c18.99-27.76,30.11-61.33,30.11-97.5c0-95.49-77.41-172.89-172.89-172.89
	S0.51,77.53,0.51,173.02S77.91,345.91,173.4,345.91c30.16,0,58.5-7.73,83.19-21.3l73.6,34.42
	C340.95,364.06,352.22,353.09,347.46,342.19z M234.08,192.1l-49.8,56.16c-5.79,6.53-15.98,6.53-21.77,0l-49.8-56.16
	c0,0-35.88-32.34-6.87-68.44c29.01-36.1,67.55-7.53,67.55-7.53s38.54-28.57,67.55,7.53C269.96,159.77,234.08,192.1,234.08,192.1z"/>
</svg>
