<?xml version="1.0" encoding="utf-8"?>
<!-- Generator: Adobe Illustrator 24.0.2, SVG Export Plug-In . SVG Version: 6.00 Build 0)  -->
<svg version="1.1" id="Instagram" xmlns="http://www.w3.org/2000/svg" xmlns:xlink="http://www.w3.org/1999/xlink" x="0px" y="0px"
	 viewBox="0 0 48.3 48.3" style="enable-background:new 0 0 48.3 48.3;" xml:space="preserve">
<style type="text/css">
	.st0{fill:#FFFFFF;}
</style>
<g>
	<circle class="st0" cx="24.2" cy="24.2" r="24"/>
</g>
<g>
	<path d="M24.2,12.7c3.7,0,4.2,0,5.6,0.1s2.1,0.3,2.6,0.5c0.6,0.3,1.1,0.6,1.6,1c0.5,0.5,0.8,1,1,1.6c0.2,0.5,0.4,1.2,0.5,2.6
		c0.1,1.5,0.1,1.9,0.1,5.6s0,4.2-0.1,5.6s-0.3,2.1-0.5,2.6c-0.3,0.6-0.6,1.1-1,1.6c-0.5,0.5-1,0.8-1.6,1c-0.5,0.2-1.2,0.4-2.6,0.5
		c-1.5,0.1-1.9,0.1-5.6,0.1s-4.2,0-5.6-0.1s-2.1-0.3-2.6-0.5c-0.6-0.3-1.1-0.6-1.6-1c-0.5-0.5-0.8-1-1-1.6c-0.2-0.5-0.4-1.2-0.5-2.6
		c-0.1-1.5-0.1-1.9-0.1-5.6s0-4.2,0.1-5.6s0.3-2.1,0.5-2.6c0.3-0.6,0.6-1.1,1-1.6c0.5-0.5,1-0.8,1.6-1c0.5-0.2,1.2-0.4,2.6-0.5
		C20.1,12.8,20.5,12.7,24.2,12.7 M24.2,10.2c-3.8,0-4.3,0-5.7,0.1c-1.5,0.1-2.5,0.3-3.4,0.6c-0.9,0.4-1.7,0.8-2.5,1.6
		S11.4,14.1,11,15c-0.3,0.9-0.6,1.9-0.6,3.4c-0.1,1.5-0.1,2-0.1,5.7c0,3.8,0,4.3,0.1,5.7c0.1,1.5,0.3,2.5,0.6,3.4
		c0.4,0.9,0.8,1.7,1.6,2.5s1.6,1.2,2.5,1.6c0.9,0.3,1.9,0.6,3.4,0.6c1.5,0.1,2,0.1,5.7,0.1s4.3,0,5.7-0.1c1.5-0.1,2.5-0.3,3.4-0.6
		c0.9-0.4,1.7-0.8,2.5-1.6s1.2-1.6,1.6-2.5c0.3-0.9,0.6-1.9,0.6-3.4c0.1-1.5,0.1-2,0.1-5.7s0-4.3-0.1-5.7c-0.1-1.5-0.3-2.5-0.6-3.4
		c-0.4-0.9-0.8-1.7-1.6-2.5s-1.6-1.2-2.5-1.6c-0.9-0.3-1.9-0.6-3.4-0.6C28.5,10.3,28,10.2,24.2,10.2L24.2,10.2z"/>
	<path d="M24.2,17c-3.9,0-7.1,3.2-7.1,7.1s3.2,7.1,7.1,7.1s7.1-3.2,7.1-7.1S28.2,17,24.2,17z M24.2,28.8c-2.6,0-4.6-2.1-4.6-4.6
		c0-2.6,2.1-4.6,4.6-4.6c2.6,0,4.6,2.1,4.6,4.6C28.9,26.7,26.8,28.8,24.2,28.8z"/>
	<circle cx="31.7" cy="16.7" r="1.7"/>
</g>
</svg>
