<?xml version="1.0" encoding="utf-8"?>
<!-- Generator: Adobe Illustrator 24.0.2, SVG Export Plug-In . SVG Version: 6.00 Build 0)  -->
<svg version="1.1" id="Linkedin" xmlns="http://www.w3.org/2000/svg" xmlns:xlink="http://www.w3.org/1999/xlink" x="0px" y="0px"
	 viewBox="0 0 48 48" style="enable-background:new 0 0 48 48;" xml:space="preserve">
<style type="text/css">
	.st0{fill:#FFFFFF;}
	.st1{fill:#008CDC;}
</style>
<rect x="9.2" y="10.3" class="st0" width="32.4" height="26.9"/>
<g>
	<path class="st1" d="M19.4,17.4c0,1.1-0.9,2.1-2.1,2.1c-1.1,0-2.1-0.9-2.1-2.1c0-1.1,0.9-2.1,2.1-2.1S19.4,16.2,19.4,17.4z
		 M28.2,20.7c-1.7,0-2.9,0.9-3.4,1.8l0,0V21h-3.4v11.5H25v-5.7c0-1.5,0.3-2.9,2.1-2.9c1.8,0,1.8,1.7,1.8,3v5.6h3.6v-6.3
		C32.4,23.1,31.8,20.7,28.2,20.7z M48,24c0,13.3-10.7,24-24,24S0,37.3,0,24S10.7,0,24,0S48,10.7,48,24z M36,13.7
		c0-1-0.8-1.7-1.8-1.7H13.8c-1,0-1.8,0.8-1.8,1.7v20.5c0,1,0.8,1.7,1.8,1.7h20.5c1,0,1.8-0.8,1.8-1.7L36,13.7L36,13.7z M38.2,30.8
		H37V31h0.5v1.4h0.3V31h0.5L38.2,30.8L38.2,30.8z M40.2,30.8h-0.4L39.3,32l-0.5-1.2h-0.4v1.7h0.2v-1.3l0.5,1.3h0.2l0.5-1.3v1.3H40
		v-1.7H40.2z M15.6,32.5h3.6V21h-3.6V32.5z"/>
</g>
</svg>
