<?xml version="1.0" encoding="utf-8"?>
<!-- Generator: Adobe Illustrator 25.2.1, SVG Export Plug-In . SVG Version: 6.00 Build 0)  -->
<svg version="1.1" id="Layer_1" xmlns="http://www.w3.org/2000/svg" xmlns:xlink="http://www.w3.org/1999/xlink" x="0px" y="0px"
	 viewBox="0 0 348.91 351.84" style="enable-background:new 0 0 348.91 351.84;" xml:space="preserve">
<style type="text/css">
	.st0{fill:#FFFFFF;}
</style>
<g>
	<path class="st0" d="M180.72,151.28c-3.98,3.97-10.41,3.97-14.39,0c-16.08-16.05-54.76-54.58-70.3-69.51
		c-19.85-19.08-21.8-55.28,12.85-72.8s64.64,26.86,64.64,26.86s30-44.38,64.64-26.86s32.7,53.72,12.85,72.8
		C235.48,96.7,196.8,135.23,180.72,151.28z"/>
</g>
<g>
	<path class="st0" d="M48.91,35.77c-1.1,0-2.21-0.24-3.27-0.74L15.48,20.72c-3.81-1.81-5.44-6.36-3.63-10.18
		c1.81-3.81,6.36-5.44,10.18-3.63l30.17,14.31c3.81,1.81,5.44,6.36,3.63,10.18C54.51,34.16,51.77,35.77,48.91,35.77z"/>
</g>
<g>
	<path class="st0" d="M329.27,110.76c-1.1,0-2.21-0.24-3.27-0.74l-30.17-14.31c-3.81-1.81-5.44-6.36-3.63-10.18
		c1.81-3.81,6.37-5.44,10.18-3.63l30.17,14.31c3.81,1.81,5.44,6.36,3.63,10.18C334.87,109.15,332.13,110.76,329.27,110.76z"/>
</g>
<g>
	<path class="st0" d="M301.32,36.04c-2.81,0-5.51-1.56-6.85-4.24c-1.88-3.78-0.33-8.36,3.44-10.24l29.9-14.85
		c3.79-1.88,8.36-0.33,10.24,3.44c1.88,3.78,0.33,8.36-3.44,10.24l-29.9,14.85C303.62,35.78,302.46,36.04,301.32,36.04z"/>
</g>
<g>
	<path class="st0" d="M18.89,112.76c-2.81,0-5.51-1.56-6.85-4.24c-1.88-3.78-0.34-8.36,3.44-10.24l29.9-14.85
		c3.78-1.88,8.36-0.33,10.24,3.44c1.88,3.78,0.34,8.36-3.44,10.24l-29.9,14.85C21.19,112.5,20.03,112.76,18.89,112.76z"/>
</g>
<g>
	<circle class="st0" cx="66.1" cy="181.43" r="37.57"/>
</g>
<g>
	<circle class="st0" cx="173.52" cy="213.75" r="37.57"/>
</g>
<g>
	<circle class="st0" cx="281.75" cy="181.43" r="37.57"/>
</g>
<g>
	<path class="st0" d="M105.03,224.13c0,0-7.79,15.83-38.93,16.35s-37.57-16.35-37.57-16.35s-25.5,7.4-25.5,27.19s0,87.79,0,87.79
		s3.37,7.79,11.68,7.79s76.82,0,76.82,0s-2.34-57.88-1.3-66.18c0,0,1.3-29.85,31.92-41.01C122.16,239.7,122.94,224.39,105.03,224.13
		z"/>
</g>
<g>
	<path class="st0" d="M243.88,224.13c0,0,7.79,15.83,38.93,16.35s37.57-16.35,37.57-16.35s25.5,7.4,25.5,27.19s0,87.79,0,87.79
		s-3.37,7.79-11.68,7.79c-8.3,0-76.82,0-76.82,0s2.34-57.88,1.3-66.18c0,0-1.3-29.85-31.92-41.01
		C226.75,239.7,225.98,224.39,243.88,224.13z"/>
</g>
<g>
	<path class="st0" d="M212.99,256.31c0,0-13.54,15.31-39.47,15.31s-37.57-15.31-37.57-15.31s-24.7,5.97-24.7,27.51
		c0,21.54,0,54.5,0,54.5s2.6,8.56,9.34,8.56c6.75,0,107.71,0,107.71,0s9.08,1.56,9.6-9.86c0.52-11.42,0-53.46,0-53.46
		S239.64,263.55,212.99,256.31z"/>
</g>
</svg>
