<?xml version="1.0" encoding="utf-8"?>
<!-- Generator: Adobe Illustrator 25.2.1, SVG Export Plug-In . SVG Version: 6.00 Build 0)  -->
<svg version="1.1" id="Layer_1" xmlns="http://www.w3.org/2000/svg" xmlns:xlink="http://www.w3.org/1999/xlink" x="0px" y="0px"
	 viewBox="0 0 348.91 340.36" style="enable-background:new 0 0 348.91 340.36;" xml:space="preserve">
<style type="text/css">
	.st0{fill:#FFFFFF;}
</style>
<g>
	<path class="st0" d="M89.81,141.15c-1.17,3.6-0.21,7.55,2.5,10.2l33.59,33.07l-7.73,46.49c-0.62,3.74,0.92,7.49,3.98,9.72
		c3.04,2.23,7.1,2.52,10.48,0.79l41.83-21.71l41.83,21.71c3.44,1.78,7.49,1.39,10.48-0.79c3.06-2.22,4.6-5.98,3.98-9.72l-7.73-46.49
		l33.59-33.07c2.7-2.65,3.67-6.6,2.5-10.2c-1.17-3.6-4.27-6.23-8.01-6.8l-46.62-7.01l-21.08-42.17c-3.39-6.77-14.48-6.77-17.87,0
		l-21.08,42.17l-46.62,7.01C94.09,134.92,90.98,137.55,89.81,141.15L89.81,141.15z"/>
	<path class="st0" d="M276.95,286.73c13.72,15.34,16.91,36.25,17.06,37.31c0.73,5.03-2.44,9.82-7.37,11.1
		c-5.78,1.51-12.45,2.31-19.29,2.21c-11.67-0.16-23.85-2.89-33.08-9.01c-13.75-9.13-20.65-24.31-23.92-34.65
		c-11.56,3.33-23.59,5.24-35.89,5.24c-12.48,0-24.68-1.95-36.39-5.37c-3.23,10.35-9.93,25.2-23.31,34.31
		c-9.28,6.33-21.45,9.13-32.9,9.44c-7.01,0.19-13.76-0.56-19.39-2.02c-4.95-1.23-8.17-5.97-7.5-11.01
		c0.14-1.06,3.11-22.17,16.77-37.68c2.67-3.03,5.75-5.85,9.29-8.26c4.49-3.07,9.33-5.03,14.17-6.47
		c-5.28-4.08-10.19-8.68-14.84-13.59c-15.57,3.12-33.12,2.31-46.72-5.89c-22.48-13.54-29.24-44-29.48-45.25
		c-0.96-5,2.01-9.92,6.88-11.42c0.92-0.3,18.48-4.45,36.26-1.08c-1.51-7.57-2.33-15.28-2.47-23.08c-9.65-4.04-27.49-13-35.62-29.58
		c-11.55-23.55-0.42-51.63,0.06-52.81c1.92-4.71,7.03-7.24,11.97-5.87c1.09,0.31,25.33,7.07,38.53,25.14
		c3.84-7.26,8.43-14.08,13.57-20.49c-4.16-9.36-10.46-27.97-4.64-46.07c8.03-24.98,35.53-37.48,36.69-38
		c4.68-2.08,10.13-0.31,12.69,4.08c0.64,1.1,15.71,27.27,7.69,52.25c-6.71,20.88-26.83,32.91-34,36.64
		c-19.69,22.54-28.62,52.98-27.15,70.35c0.21,2.46-1.71,25.34,13.15,54.01c19.8,36.14,56.86,57.75,96.7,57.75
		c40.17,0,77.56-22.04,97.23-58.74c14.26-28.24,12.41-50.49,12.62-52.93c1.33-15.84-6.27-46.08-26.59-69.76
		c-6.18-3.15-27.96-15.58-34.83-37.43C215.01,35.08,230.24,9,230.9,7.9c2.59-4.37,8.03-6.12,12.71-4
		c1.16,0.53,28.58,13.21,36.44,38.23c5.61,17.84-0.49,36.05-4.7,45.52c5.23,6.49,9.89,13.41,13.79,20.77
		c13.22-18.07,37.47-24.83,38.57-25.13c4.93-1.36,10.06,1.17,11.96,5.87c0.48,1.19,11.59,29.28,0.02,52.82
		c-8.13,16.55-25.93,25.49-35.6,29.53c-0.15,7.76-0.95,15.41-2.44,22.93c17.81-3.27,35.35,0.97,36.29,1.26
		c4.86,1.53,7.79,6.47,6.81,11.46c-0.25,1.25-7.18,31.69-29.72,45.08c-13.49,8.02-30.73,8.81-46.19,5.74
		c-4.84,5.14-9.96,9.95-15.5,14.18c4.8,1.38,9.59,3.26,14.07,6.23C271.05,280.82,274.21,283.66,276.95,286.73z"/>
</g>
</svg>
